<svg width="24" height="24" viewBox="0 0 24 24" fill="none" xmlns="http://www.w3.org/2000/svg">
<path d="M7.34965 2.68499V4.22999H5.78965H4.22965V5.78999V7.34999H2.68465H1.13965V8.90999V10.47H2.68465H4.22965V12V13.53H2.68465H1.13965V15.09V16.65H2.68465H4.22965V18.21V19.77H5.78965H7.34965V21.315V22.86H8.90965H10.4696V21.315V19.77H11.9996H13.5296V21.315V22.86H15.0896H16.6496V21.315V19.77H18.2096H19.7696V18.21V16.65H21.3146H22.8596V15.09V13.53H21.3146H19.7696V12V10.47H21.3146H22.8596V8.90999V7.34999H21.3146H19.7696V5.78999V4.22999H18.2096H16.6496V2.68499V1.13999H15.0896H13.5296V2.68499V4.22999H11.9996H10.4696V2.68499V1.13999H8.90965H7.34965V2.68499ZM13.5296 8.90999V10.47H15.0896H16.6496V12V13.53H15.0896H13.5296V15.09V16.65H11.9996H10.4696V15.09V13.53H8.90965H7.34965V12V10.47H8.90965H10.4696V8.90999V7.34999H11.9996H13.5296V8.90999Z" fill="#EAECF0"/>
</svg>
