<svg width="16" height="14" viewBox="0 0 16 14" fill="none" xmlns="http://www.w3.org/2000/svg">
<g clip-path="url(#clip0_1004_8250)">
<path d="M15.2279 0.0214844L9.3515 4.38038L10.4453 1.80369L15.2279 0.0214844Z" fill="#E17726" stroke="#E17726" stroke-width="0.25" stroke-linecap="round" stroke-linejoin="round"/>
<path d="M1.65211 0.0214844L7.48564 4.42333L6.43475 1.82517L1.65211 0.0214844ZM13.1047 10.135L11.5391 12.5399L14.9062 13.4632L15.8713 10.1994C15.8499 10.1994 13.1047 10.135 13.1047 10.135ZM1.03015 10.1994L1.99526 13.4632L5.34096 12.5399L3.77534 10.135L1.03015 10.1994Z" fill="#E27625" stroke="#E27625" stroke-width="0.25" stroke-linecap="round" stroke-linejoin="round"/>
<path d="M5.14792 6.09818L4.22571 7.51536L7.52852 7.6442L7.42128 4.07978L5.14792 6.09818ZM11.7321 6.09818L9.41584 4.03683L9.33005 7.66567L12.6543 7.51536C12.6543 7.49389 11.7321 6.09818 11.7321 6.09818ZM5.34094 12.5399L7.35694 11.5736L5.61975 10.2209L5.34094 12.5399ZM9.54452 11.5522L11.5391 12.5184L11.2603 10.1994C11.2817 10.2209 9.54452 11.5522 9.54452 11.5522Z" fill="#E27625" stroke="#E27625" stroke-width="0.25" stroke-linecap="round" stroke-linejoin="round"/>
<path d="M11.5391 12.5399L9.54452 11.5736L9.71609 12.8834L9.69464 13.4417L11.5391 12.5399ZM5.34094 12.5399L7.20681 13.4203L7.18537 12.862L7.35694 11.5522L5.34094 12.5399Z" fill="#D5BFB2" stroke="#D5BFB2" stroke-width="0.25" stroke-linecap="round" stroke-linejoin="round"/>
<path d="M7.22828 9.36197L5.57687 8.86811L6.75645 8.3313L7.22828 9.36197ZM9.65177 9.36197L10.145 8.3313L11.3246 8.86811L9.65177 9.36197Z" fill="#233447" stroke="#233447" stroke-width="0.25" stroke-linecap="round" stroke-linejoin="round"/>
<path d="M5.34096 12.5399L5.64121 10.135L3.79679 10.1994C3.77534 10.1994 5.34096 12.5399 5.34096 12.5399ZM11.2603 10.135L11.5391 12.5399L13.1047 10.1994L11.2603 10.135ZM12.6543 7.49387L9.33007 7.64417L9.63032 9.34049L10.1236 8.30982L11.3032 8.84663C11.3246 8.8681 12.6543 7.49387 12.6543 7.49387ZM5.57687 8.8681L6.75645 8.33129L7.24972 9.36196L7.54998 7.66564L4.22572 7.51534L5.57687 8.8681Z" fill="#CC6228" stroke="#CC6228" stroke-width="0.25" stroke-linecap="round" stroke-linejoin="round"/>
<path d="M4.22571 7.49387L5.61975 10.1994L5.57686 8.84663C5.57686 8.8681 4.22571 7.49387 4.22571 7.49387ZM11.3246 8.8681L11.2603 10.2209L12.6543 7.51534C12.6543 7.49387 11.3246 8.8681 11.3246 8.8681ZM7.54996 7.64417L7.22826 9.34049L7.6143 11.3589L7.70009 8.69632L7.54996 7.64417ZM9.3515 7.64417L9.17992 8.69632L9.26571 11.3589L9.65175 9.34049L9.3515 7.64417Z" fill="#E27525" stroke="#E27525" stroke-width="0.25" stroke-linecap="round" stroke-linejoin="round"/>
<path d="M9.65177 9.36197L9.26572 11.3804L9.54453 11.5736L11.2603 10.2209L11.3246 8.8681L9.65177 9.36197ZM5.57687 8.8681L5.61977 10.2209L7.35696 11.5736L7.63577 11.3804L7.24973 9.36197L5.57687 8.8681Z" fill="#F5841F" stroke="#F5841F" stroke-width="0.25" stroke-linecap="round" stroke-linejoin="round"/>
<path d="M9.69464 13.4203L9.71609 12.862L9.56596 12.7332H7.3355L7.18537 12.862L7.20681 13.4203L5.34094 12.5399L6.00579 13.0767L7.3355 13.9786H9.60886L10.9386 13.0552L11.582 12.5184L9.69464 13.4203Z" fill="#C0AC9D" stroke="#C0AC9D" stroke-width="0.25" stroke-linecap="round" stroke-linejoin="round"/>
<path d="M9.54451 11.5522L9.2657 11.3589H7.63575L7.35694 11.5522L7.18536 12.862L7.33549 12.7332H9.56596L9.71609 12.862L9.54451 11.5522Z" fill="#161616" stroke="#161616" stroke-width="0.25" stroke-linecap="round" stroke-linejoin="round"/>
<path d="M15.4853 4.68099L15.9786 2.27609L15.2279 0.0214844L9.54452 4.25155L11.7321 6.09817L14.8204 7.00001L15.5067 6.20553L15.2065 5.99081L15.6783 5.56136L15.3137 5.28222L15.7855 4.91719L15.4853 4.68099ZM0.901459 2.27609L1.39474 4.68099L1.09448 4.91719L1.56631 5.28222L1.20171 5.56136L1.67354 5.99081L1.37329 6.20553L2.05959 7.00001L5.14793 6.09817L7.3355 4.25155L1.6521 0.0214844L0.901459 2.27609Z" fill="#763E1A" stroke="#763E1A" stroke-width="0.25" stroke-linecap="round" stroke-linejoin="round"/>
<path d="M14.8205 7L11.7321 6.09816L12.6543 7.49387L11.2603 10.1994L13.1047 10.1779H15.8499L14.8205 7ZM5.14794 6.09816L2.0596 7L1.03015 10.1994H3.77534L5.61977 10.2209L4.22573 7.51534L5.14794 6.09816ZM9.35151 7.64417L9.54454 4.23006L10.4453 1.80368H6.43475L7.33551 4.23006L7.52853 7.64417L7.61432 8.71779V11.3589H9.26573V8.71779L9.35151 7.64417Z" fill="#F5841F" stroke="#F5841F" stroke-width="0.25" stroke-linecap="round" stroke-linejoin="round"/>
</g>
<defs>
<clipPath id="clip0_1004_8250">
<rect width="15.12" height="14" fill="white" transform="translate(0.880005)"/>
</clipPath>
</defs>
</svg>
