<svg width="73" height="31" viewBox="0 0 73 31" fill="none" xmlns="http://www.w3.org/2000/svg">
<path d="M2.656 1.568H9.664L12.064 23.968H7.584L7.072 18.432H5.12L4.64 23.968H0.16L2.656 1.568ZM5.472 14.528H6.72L6.272 9.184H5.952L5.472 14.528ZM16.7673 12.544V19.168C16.7673 20.096 17.2153 20.672 17.8873 20.672C18.5593 20.672 19.0073 20.096 19.0073 19.168V16.544H23.2313V18.912C23.2313 22.208 21.1193 24.32 17.8233 24.32C14.5273 24.32 12.5113 22.24 12.5113 18.912V12.768C12.5113 9.44 14.5273 7.36 17.8233 7.36C21.1193 7.36 23.2313 9.472 23.2313 12.768V15.136H19.0073V12.544C19.0073 11.584 18.5593 11.008 17.8873 11.008C17.2153 11.008 16.7673 11.584 16.7673 12.544ZM24.1675 12.768C24.1675 9.6 26.0235 7.36 29.4795 7.36C32.9355 7.36 34.8875 9.632 34.8875 12.768V18.912C34.8875 22.048 32.9355 24.32 29.4795 24.32C26.0235 24.32 24.1675 22.08 24.1675 18.912V12.768ZM28.4235 12.544V19.168C28.4235 20.096 28.8715 20.672 29.5435 20.672C30.2155 20.672 30.6635 20.096 30.6635 19.168V12.544C30.6635 11.552 30.2155 11.008 29.5435 11.008C28.8715 11.008 28.4235 11.552 28.4235 12.544ZM35.8878 24V0.959999H40.1438V24H35.8878ZM51.9195 7.68V25.792C51.9195 28.896 49.9675 30.72 46.6075 30.72C43.2795 30.72 41.2635 28.864 41.2635 25.824V25.024H45.5195V25.568C45.5195 26.496 45.9355 27.072 46.5755 27.072C47.2475 27.072 47.6635 26.496 47.6635 25.504V22.144H47.3755C46.6715 23.584 45.6475 24.32 44.3675 24.32C42.6395 24.32 41.1995 22.88 41.1995 19.904V7.68H45.4555V19.392C45.4555 20.192 45.8395 20.736 46.4155 20.736C46.9275 20.736 47.4075 20.32 47.6635 19.68V7.68H51.9195ZM52.6273 11.328V7.68H54.0993V4.16L58.3233 3.904V7.68H61.0433V11.328H58.3233V18.848C58.3233 20.128 59.0913 20.544 59.9873 20.544C60.3073 20.544 60.6913 20.48 61.0433 20.384L61.1073 24.032C60.1793 24.224 59.3153 24.32 58.5473 24.32C55.8913 24.32 54.0993 23.04 54.0993 19.072L54.0673 11.328H52.6273ZM65.861 16.864V19.136C65.861 20.096 66.277 20.672 66.949 20.672C67.621 20.672 68.069 20.096 68.069 19.136V17.824H72.325V18.912C72.325 22.208 70.181 24.32 66.917 24.32C63.621 24.32 61.605 22.24 61.605 18.912V12.768C61.605 9.44 63.621 7.36 66.917 7.36C70.181 7.36 72.325 9.472 72.325 12.768V16.864H65.861ZM65.861 12.544V14.56H68.069V12.544C68.069 11.584 67.621 11.008 66.949 11.008C66.277 11.008 65.861 11.584 65.861 12.544Z" fill="#D6594B"/>
</svg>
